<svg class="rounded-full" xmlns="http://www.w3.org/2000/svg" class="flag-icons-ir" viewBox="0 0 512 512">
    <g fill-rule="evenodd" clip-path="url(#a)" transform="translate(-192) scale(1.0321)">
        <path fill="#fff" d="M0 0h868.1v496H0z" />
        <path fill="#da0000" d="M0 333.1h868.1v163H0z" />
        <path fill="#239f40" d="M0 0h868.1v163H0z" />
        <g fill="#da0000">
            <path
                d="M457 191.4c8.3 10 33.5 65.5-15.2 101.9-22.9 17.2-8.7 18-8 21 36.8-19.6 48.8-46 48.5-69.8-.3-23.7-12.8-44.6-25.2-53.1z" />
            <path
                d="M462 188.8a71 71 0 0 1 15 108.8c26.4-5.8 60-83.7-15.2-108.8zm-55.9 0a71 71 0 0 0-15 108.8c-26.5-5.8-60.1-83.7 15-108.8z" />
            <path
                d="M411 191.4c-8.2 10-33.5 65.5 15.2 101.9 22.9 17.2 8.7 18 8 21-36.7-19.6-48.8-46-48.5-69.8.3-23.7 12.9-44.6 25.3-53.1z" />
            <path
                d="M480.7 309.2a102 102 0 0 1-46-9c2.2 4.3 4 7 6.3 11.4 12.8 1.1 30.5 2.6 39.7-2.4zm-92 0c14.4.2 32.6-2 46-9-2.2 4.3-4 7-6.3 11.4-12.8 1.1-30.5 2.6-39.7-2.4zm26.4-134.4c3 7.7 10.6 8.9 18.8 4.3 6 3.6 15.2 3.8 18.4-4 2.4 19.2-17.8 14.7-18.5 11-7.5 7.2-21.5 3-18.7-11.3z" />
            <path d="m434.4 321.3 7.6-8.7 1-116.4-9-8-9 7.6 1.8 117.2 7.6 8.3z" />
        </g>
    </g>
</svg>